#!OML:ASF X:\für Bonn\!DataBase\2005_08_12_Daniel\c3d\Daniel.ASF
:FULLY-SPECIFIED
:DEGREES
251
root 15.3442 1.48061 0.761313 -807.583 -86.3843 -367.244
lowerback 60.2974 -5.33608 9.63672
upperback 17.0167 -5.09548 -3.57262
thorax -2.60808 -3.66774 -5.94813
lowerneck 3.19684 1.77188 -8.08868
upperneck 14.7757 1.74198 2.55604
head 4.2414 0.347338 2.33154
rclavicle -1.15544e-014 -6.27166e-014
rhumerus -67.9441 25.1788 -113.347
rradius 51.0623
rwrist 5.43832
rhand -59.9967 -319.584
rfingers 7.12502
rthumb -32.1487 -346.76
lclavicle -1.15544e-014 -6.27166e-014
lhumerus -755.024 15.1187 -639.017
lradius 53.3357
lwrist 35.683
lhand -50.9918 364.876
lfingers 7.12502
lthumb -23.5407 393.455
rfemur 333.888 -19.2731 378.959
rtibia 66.6381
rfoot 19.2539 -8.7182
rtoes 15.7331
lfemur -48.3619 58.4843 -15.8317
ltibia 131.553
lfoot 33.0408 -19.397
ltoes 0.237663
252
root 15.349 1.47902 0.765129 -807.258 -86.3304 -368.009
lowerback 60.0664 -5.32864 9.61467
upperback 17.0814 -5.11157 -3.56983
thorax -2.53517 -3.67298 -5.93919
lowerneck 3.35573 1.77079 -7.9753
upperneck 14.8182 1.72148 2.54082
head 4.22739 0.338382 2.3029
rclavicle -6.90777e-015 -1.18277e-014
rhumerus -68.2985 25.5232 -113.639
rradius 51.4726
rwrist 4.83753
rhand -59.9303 -319.972
rfingers 7.12502
rthumb -32.0855 -347.16
lclavicle -6.90777e-015 -1.18277e-014
lhumerus -754.869 14.8076 -639.084
lradius 53.9387
lwrist 36.0379
lhand -50.4159 366.004
lfingers 7.12502
lthumb -22.9882 394.653
rfemur 334.559 -18.981 378.736
rtibia 66.356
rfoot 19.2893 -8.90747
rtoes 15.8719
lfemur -48.5257 57.5655 -15.8702
ltibia 131.02
lfoot 32.3019 -18.9986
ltoes 0.171999
253
root 15.3533 1.47754 0.768468 -807.055 -86.2732 -368.631
lowerback 59.8054 -5.28988 9.54933
upperback 17.1486 -5.11608 -3.53851
thorax -2.45506 -3.67753 -5.88622
lowerneck 3.53119 1.77274 -7.86579
upperneck 14.8485 1.70866 2.48212
head 4.2055 0.33138 2.25955
rclavicle -1.59028e-014 -6.60959e-014
rhumerus -68.5814 25.8289 -113.823
rradius 51.7476
rwrist 4.35277
rhand -59.8811 -320.415
rfingers 7.12502
rthumb -32.0387 -347.613
lclavicle -1.59028e-014 -6.60959e-014
lhumerus -754.672 14.4943 -639.128
lradius 54.5264
lwrist 36.3922
lhand -49.7624 366.924
lfingers 7.12502
lthumb -22.3611 395.65
rfemur 335.195 -18.6972 378.528
rtibia 66.0912
rfoot 19.3249 -9.04713
rtoes 16.0399
lfemur -48.5382 56.6968 -15.7754
ltibia 130.493
lfoot 31.6844 -18.4419
ltoes 0.423779
254
root 15.3575 1.47613 0.772208 -806.758 -86.2161 -369.35
lowerback 59.5251 -5.26109 9.49591
upperback 17.228 -5.12939 -3.5296
thorax -2.36377 -3.6833 -5.86081
lowerneck 3.72119 1.77551 -7.71471
upperneck 14.8767 1.69563 2.42461
head 4.18003 0.326536 2.20886
rclavicle -1.63252e-014 2.13694e-014
rhumerus -68.8294 26.1014 -114.006
rradius 51.9944
rwrist 3.86237
rhand -59.8051 -321.02
rfingers 7.12502
rthumb -31.9663 -348.233
lclavicle -1.63252e-014 2.13694e-014
lhumerus -754.438 14.1987 -639.19
lradius 55.0903
lwrist 36.6176
lhand -49.0192 367.695
lfingers 7.12502
lthumb -21.6474 396.505
rfemur 335.817 -18.4515 378.312
rtibia 65.8464
rfoot 19.3715 -9.15234
rtoes 16.205
lfemur -48.3651 55.8856 -15.5308
ltibia 129.948
lfoot 31.2535 -17.7064
ltoes 1.29403
255
root 15.3599 1.47385 0.775631 -806.455 -86.1563 -370.081
lowerback 59.2494 -5.22536 9.43979
upperback 17.3058 -5.13453 -3.5194
thorax -2.27267 -3.68516 -5.83613
lowerneck 3.96397 1.77619 -7.5508
upperneck 14.8549 1.67735 2.35978
head 4.12664 0.320969 2.15168
rclavicle -2.86498e-014 -5.88403e-014
rhumerus -69.0799 26.4131 -114.228
rradius 52.2266
rwrist 3.3184
rhand -59.6938 -321.807
rfingers 7.12502
rthumb -31.8603 -349.041
lclavicle -2.86498e-014 -5.88403e-014
lhumerus -754.181 13.8941 -639.272
lradius 55.6412
lwrist 36.7853
lhand -48.1698 368.277
lfingers 7.12502
lthumb -20.8316 397.179
rfemur 336.436 -18.2472 378.101
rtibia 65.6191
rfoot 19.4108 -9.21469
rtoes 16.3046
lfemur -48.1146 55.0781 -15.2021
ltibia 129.415
lfoot 30.9154 -16.846
ltoes 2.19497
256
root 15.3636 1.47168 0.778316 -806.298 -86.0972 -370.648
lowerback 58.9782 -5.16826 9.34684
upperback 17.3665 -5.1319 -3.49532
thorax -2.19882 -3.68679 -5.78227
lowerneck 4.17109 1.7827 -7.42135
upperneck 14.8769 1.66944 2.29575
head 4.09568 0.317156 2.1027
rclavicle 4.94477e-015 -8.64713e-015
rhumerus -69.3924 26.783 -114.466
rradius 52.4898
rwrist 2.70184
rhand -59.574 -322.668
rfingers 7.12502
rthumb -31.7462 -349.925
lclavicle 4.94477e-015 -8.64713e-015
lhumerus -753.88 13.6289 -639.336
lradius 56.1212
lwrist 36.8398
lhand -47.2903 368.578
lfingers 7.12502
lthumb -19.9863 397.57
rfemur 337.022 -18.0384 377.898
rtibia 65.4068
rfoot 19.4172 -9.27504
rtoes 16.4818
lfemur -47.7843 54.3006 -14.818
ltibia 128.859
lfoot 30.6463 -15.9452
ltoes 2.85141
257
root 15.3659 1.46846 0.782243 -806.126 -86.0401 -371.251
lowerback 58.7277 -5.12362 9.26723
upperback 17.4339 -5.13714 -3.47511
thorax -2.11784 -3.69227 -5.73512
lowerneck 4.36292 1.78352 -7.30363
upperneck 14.8745 1.65865 2.216
head 4.05913 0.311964 2.05042
rclavicle 6.55989e-015 -1.64494e-014
rhumerus -69.6801 27.1732 -114.701
rradius 52.7824
rwrist 1.93203
rhand -59.3239 -323.632
rfingers 7.12502
rthumb -31.508 -350.936
lclavicle 6.55989e-015 -1.64494e-014
lhumerus -753.538 13.3783 -639.396
lradius 56.5847
lwrist 36.8623
lhand -46.2314 368.688
lfingers 7.12502
lthumb -18.9682 397.783
rfemur 337.622 -17.874 377.693
rtibia 65.1991
rfoot 19.4812 -9.21256
rtoes 16.3276
lfemur -47.347 53.5378 -14.3475
ltibia 128.307
lfoot 30.4447 -14.9157
ltoes 3.74602
258
root 15.3698 1.46651 0.785294 -805.829 -85.9944 -371.959
lowerback 58.4719 -5.07686 9.17717
upperback 17.4825 -5.14271 -3.45915
thorax -2.05834 -3.69757 -5.6867
lowerneck 4.61695 1.79538 -7.13608
upperneck 14.844 1.65954 2.12262
head 4.00006 0.315053 1.98339
rclavicle 2.94947e-014 3.05134e-014
rhumerus -69.9883 27.5959 -114.974
rradius 53.0933
rwrist 1.03134
rhand -59.0241 -324.76
rfingers 7.12502
rthumb -31.2224 -352.119
lclavicle 2.94947e-014 3.05134e-014
lhumerus -753.194 13.199 -639.491
lradius 56.9926
lwrist 36.8115
lhand -45.0543 368.557
lfingers 7.12502
lthumb -17.8359 397.76
rfemur 338.203 -17.7404 377.52
rtibia 64.9932
rfoot 19.5346 -9.12434
rtoes 16.1991
lfemur -46.9191 52.763 -13.8697
ltibia 127.749
lfoot 30.2408 -13.9006
ltoes 4.59695
259
root 15.3734 1.46361 0.78879 -805.678 -85.9645 -372.523
lowerback 58.2242 -5.03097 9.09746
upperback 17.5373 -5.14453 -3.44379
thorax -1.99071 -3.70099 -5.64528
lowerneck 4.80135 1.8142 -7.00918
upperneck 14.8386 1.67422 2.05234
head 3.96272 0.323671 1.93354
rclavicle -3.51352e-014 4.27387e-015
rhumerus -70.2454 28.0481 -115.231
rradius 53.4027
rwrist -0.093965
rhand -58.6212 -325.775
rfingers 7.12502
rthumb -30.8383 -353.207
lclavicle -3.51352e-014 4.27387e-015
lhumerus -752.792 13.0111 -639.563
lradius 57.3718
lwrist 36.6721
lhand -43.7416 368.334
lfingers 7.12502
lthumb -16.5724 397.647
rfemur 338.772 -17.6139 377.364
rtibia 64.7898
rfoot 19.565 -9.01438
rtoes 15.814
lfemur -46.4107 52.021 -13.3379
ltibia 127.173
lfoot 30.0741 -12.8487
ltoes 5.53295
260
root 15.3775 1.46027 0.791532 -805.293 -85.9039 -373.308
lowerback 57.9826 -4.97498 8.97243
upperback 17.5727 -5.15506 -3.41617
thorax -1.94502 -3.71256 -5.56552
lowerneck 5.03395 1.82907 -6.87925
upperneck 14.7878 1.68466 1.94298
head 3.90057 0.330007 1.86845
rclavicle 9.19379e-016 -9.34288e-015
rhumerus -70.5572 28.5642 -115.505
rradius 53.7872
rwrist -1.45253
rhand -58.1168 -326.893
rfingers 7.12502
rthumb -30.3572 -354.415
lclavicle 9.19379e-016 -9.34288e-015
lhumerus -752.418 12.893 -639.627
lradius 57.7405
lwrist 36.5165
lhand -42.2472 367.913
lfingers 7.12502
lthumb -15.1333 397.339
rfemur 339.329 -17.5251 377.184
rtibia 64.5859
rfoot 19.6105 -8.85656
rtoes 15.4563
lfemur -45.9387 51.2387 -12.8777
ltibia 126.588
lfoot 29.9026 -11.7496
ltoes 6.45121
261
root 15.384 1.45767 0.795972 -805.124 -85.8861 -373.891
lowerback 57.7613 -4.93218 8.8908
upperback 17.6031 -5.1553 -3.39383
thorax -1.90338 -3.7161 -5.51374
lowerneck 5.27182 1.84811 -6.74574
upperneck 14.7186 1.70046 1.8454
head 3.83082 0.340509 1.80674
rclavicle 2.26366e-014 4.67144e-014
rhumerus -70.7859 29.0372 -115.727
rradius 54.1377
rwrist -3.00698
rhand -57.5113 -328.023
rfingers 7.12502
rthumb -29.7796 -355.65
lclavicle 2.26366e-014 4.67144e-014
lhumerus -752.02 12.7605 -639.69
lradius 58.0926
lwrist 36.3246
lhand -40.5809 367.64
lfingers 7.12502
lthumb -13.5277 397.18
rfemur 339.914 -17.4341 377.035
rtibia 64.3722
rfoot 19.6648 -8.6706
rtoes 15.1122
lfemur -45.3763 50.483 -12.3278
ltibia 125.987
lfoot 29.6911 -10.721
ltoes 7.1127
